<svg width="15" height="15" viewBox="0 0 15 15" fill="none" xmlns="http://www.w3.org/2000/svg">
<path d="M1.52411 5.12787C1.07823 5.12787 0.855292 4.90038 0.855292 4.4454V2.78699C0.855292 2.05902 1.04411 1.5085 1.42174 1.13541C1.79938 0.762327 2.35673 0.575785 3.0938 0.575785H4.7522C5.20263 0.575785 5.42785 0.798726 5.42785 1.24461C5.42785 1.69504 5.20263 1.92025 4.7522 1.92025H3.17569C2.85721 1.92025 2.61379 2.00215 2.44545 2.16594C2.28166 2.32974 2.19976 2.5777 2.19976 2.90984V4.4454C2.19976 4.90038 1.97454 5.12787 1.52411 5.12787ZM13.7062 5.12787C13.2603 5.12787 13.0374 4.90038 13.0374 4.4454V2.90984C13.0374 2.5777 12.951 2.32974 12.7781 2.16594C12.6097 2.00215 12.3686 1.92025 12.0546 1.92025H10.4781C10.0277 1.92025 9.80249 1.69504 9.80249 1.24461C9.80249 0.798726 10.0277 0.575785 10.4781 0.575785H12.1365C12.8782 0.575785 13.4378 0.762327 13.8154 1.13541C14.1931 1.5085 14.3819 2.05902 14.3819 2.78699V4.4454C14.3819 4.90038 14.1567 5.12787 13.7062 5.12787ZM3.0938 14.0955C2.35673 14.0955 1.79938 13.9067 1.42174 13.5291C1.04411 13.156 0.855292 12.6055 0.855292 11.8775V10.2259C0.855292 9.77095 1.07823 9.54346 1.52411 9.54346C1.97454 9.54346 2.19976 9.77095 2.19976 10.2259V11.7615C2.19976 12.0936 2.28166 12.3416 2.44545 12.5054C2.61379 12.6692 2.85721 12.7511 3.17569 12.7511H4.7522C5.20263 12.7511 5.42785 12.9763 5.42785 13.4267C5.42785 13.8726 5.20263 14.0955 4.7522 14.0955H3.0938ZM10.4781 14.0955C10.0277 14.0955 9.80249 13.8726 9.80249 13.4267C9.80249 12.9763 10.0277 12.7511 10.4781 12.7511H12.0546C12.3686 12.7511 12.6097 12.6692 12.7781 12.5054C12.951 12.3416 13.0374 12.0936 13.0374 11.7615V10.2259C13.0374 9.77095 13.2603 9.54346 13.7062 9.54346C14.1567 9.54346 14.3819 9.77095 14.3819 10.2259V11.8775C14.3819 12.6055 14.1931 13.156 13.8154 13.5291C13.4378 13.9067 12.8782 14.0955 12.1365 14.0955H10.4781Z" fill="white"/>
</svg>
