<svg width="34" height="34" viewBox="0 0 34 34" fill="none" xmlns="http://www.w3.org/2000/svg">
<rect x="0.873535" y="0.781647" width="32.3678" height="32.3678" rx="16.1839" fill="white" fill-opacity="0.06" style="mix-blend-mode:lighten"/>
<rect x="0.873535" y="0.781647" width="32.3678" height="32.3678" rx="16.1839" fill="#5E5E5E" fill-opacity="0.18" style="mix-blend-mode:color-dodge"/>
<path d="M21.4321 16.8542C21.4321 16.9725 21.4093 17.0817 21.3638 17.1818C21.3183 17.2819 21.2501 17.3774 21.1591 17.4684L15.8426 22.6689C15.6925 22.8236 15.506 22.9009 15.283 22.9009C15.1374 22.9009 15.0032 22.8645 14.8804 22.7917C14.7575 22.7235 14.6597 22.6279 14.5869 22.5051C14.5187 22.3868 14.4845 22.2548 14.4845 22.1092C14.4845 21.8908 14.5664 21.6975 14.7302 21.5291L19.5212 16.8542L14.7302 12.1793C14.5664 12.0109 14.4845 11.8198 14.4845 11.606C14.4845 11.4559 14.5187 11.3216 14.5869 11.2033C14.6597 11.085 14.7575 10.9918 14.8804 10.9235C15.0032 10.8507 15.1374 10.8143 15.283 10.8143C15.506 10.8143 15.6925 10.8894 15.8426 11.0395L21.1591 16.24C21.2501 16.331 21.3183 16.4265 21.3638 16.5266C21.4093 16.6267 21.4321 16.7359 21.4321 16.8542Z" fill="white" fill-opacity="0.96"/>
</svg>
