<svg width="34" height="34" viewBox="0 0 34 34" fill="none" xmlns="http://www.w3.org/2000/svg">
<rect x="0.758545" y="0.781647" width="32.3678" height="32.3678" rx="16.1839" fill="white" fill-opacity="0.06" style="mix-blend-mode:lighten"/>
<rect x="0.758545" y="0.781647" width="32.3678" height="32.3678" rx="16.1839" fill="#5E5E5E" fill-opacity="0.18" style="mix-blend-mode:color-dodge"/>
<path fill-rule="evenodd" clip-rule="evenodd" d="M15.2671 19.8271C15.2083 19.9924 15.0759 20.1083 14.9287 20.2186C14.6933 20.3896 14.4137 20.5366 14.1341 20.7161C13.4867 21.1472 12.8687 21.7295 12.8687 22.9719V23.3832H20.4614V22.9719C20.4614 21.7295 19.8581 21.1472 19.196 20.7161C18.9164 20.5366 18.6368 20.3896 18.4014 20.2186C18.2542 20.1083 18.1218 19.9924 18.0629 19.8271C18.0776 19.803 18.0924 19.7607 18.1218 19.7324C18.1807 19.6363 18.2689 19.5345 18.3572 19.4186C18.6368 19.061 18.9311 18.6045 18.9311 17.9812C18.9311 16.7049 17.9011 15.7989 16.6798 15.7904H16.665C15.4437 15.7904 14.399 16.7006 14.399 17.9812C14.399 18.6059 14.6933 19.0624 14.9729 19.4214C15.0611 19.5359 15.1494 19.6377 15.2083 19.7324C15.2377 19.7607 15.2524 19.803 15.2671 19.8271ZM13.7662 22.5592C13.9134 21.8016 14.4578 21.4878 14.9434 21.1981C15.4879 20.873 15.9587 20.5493 16.1059 20.0122C16.1795 19.7833 16.1206 19.5331 15.9146 19.2617C15.7086 18.9691 15.2671 18.6017 15.2671 17.9812C15.2671 17.184 15.8999 16.6144 16.665 16.6144H16.6798C17.4302 16.6201 18.0776 17.1868 18.0776 17.9812C18.0776 18.6002 17.6215 18.9677 17.4155 19.2617C17.2242 19.5331 17.1506 19.7833 17.2242 20.0122C17.3861 20.5493 17.8422 20.873 18.3867 21.1981C18.8722 21.4878 19.4167 21.8016 19.5638 22.5592H13.7662Z" fill="white" fill-opacity="0.96"/>
<path d="M12.0256 15.3056C12.1728 15.1954 12.3052 15.0795 12.3641 14.9141C12.3494 14.8901 12.3346 14.8477 12.3052 14.8194C12.2464 14.7247 12.1581 14.623 12.0698 14.5085C11.7902 14.1495 11.4959 13.6929 11.4959 13.0682C11.4959 11.7877 12.5406 10.8774 13.762 10.8774H13.7767C14.998 10.8859 16.028 11.7919 16.028 13.0682C16.028 13.6915 15.7337 14.148 15.4542 14.5056C15.3659 14.6215 15.2776 14.7233 15.2187 14.8194C15.1893 14.8477 15.1746 14.8901 15.1599 14.9141C15.2187 15.0795 15.3511 15.1954 15.4983 15.3056L14.8785 15.876C14.6176 15.6624 14.4173 15.4186 14.3211 15.0993C14.2475 14.8703 14.3211 14.6201 14.5124 14.3487C14.7184 14.0548 15.1746 13.6873 15.1746 13.0682C15.1746 12.2739 14.5271 11.7071 13.7767 11.7014H13.762C12.9968 11.7014 12.3641 12.2711 12.3641 13.0682C12.3641 13.6887 12.8055 14.0562 13.0115 14.3487C13.2175 14.6201 13.2764 14.8703 13.2028 15.0993C13.0557 15.6363 12.5848 15.96 12.0403 16.2851C11.5548 16.5749 11.0103 16.8886 10.8632 17.6462H13.762L13.762 18.4702H9.96558V18.0589C9.96558 16.8165 10.5836 16.2342 11.231 15.8031C11.5106 15.6236 11.7902 15.4766 12.0256 15.3056Z" fill="white" fill-opacity="0.96"/>
<path d="M21.3374 15.3056C21.1903 15.1954 21.0578 15.0795 20.999 14.9141C21.0137 14.8901 21.0284 14.8477 21.0578 14.8194C21.1167 14.7247 21.205 14.623 21.2933 14.5085C21.5728 14.1495 21.8671 13.6929 21.8671 13.0682C21.8671 11.7877 20.8224 10.8774 19.6011 10.8774H19.5864C18.365 10.8859 17.335 11.7919 17.335 13.0682C17.335 13.6915 17.6293 14.148 17.9089 14.5056C17.9972 14.6215 18.0855 14.7233 18.1443 14.8194C18.1737 14.8477 18.1885 14.8901 18.2032 14.9141C18.1443 15.0795 18.0119 15.1954 17.8647 15.3056L18.4845 15.876C18.7455 15.6624 18.9457 15.4186 19.0419 15.0993C19.1155 14.8703 19.0419 14.6201 18.8506 14.3487C18.6446 14.0548 18.1885 13.6873 18.1885 13.0682C18.1885 12.2739 18.8359 11.7071 19.5864 11.7014H19.6011C20.3662 11.7014 20.999 12.2711 20.999 13.0682C20.999 13.6887 20.5575 14.0562 20.3515 14.3487C20.1455 14.6201 20.0867 14.8703 20.1602 15.0993C20.3074 15.6363 20.7782 15.96 21.3227 16.2851C21.8083 16.5749 22.3527 16.8886 22.4999 17.6462H19.6011L19.6011 18.4702H23.3975V18.0589C23.3975 16.8165 22.7794 16.2342 22.132 15.8031C21.8524 15.6236 21.5728 15.4766 21.3374 15.3056Z" fill="white" fill-opacity="0.96"/>
</svg>
