<svg width="34" height="34" viewBox="0 0 34 34" fill="none" xmlns="http://www.w3.org/2000/svg">
<rect x="0.735596" y="0.781647" width="32.3678" height="32.3678" rx="16.1839" fill="white" fill-opacity="0.06" style="mix-blend-mode:lighten"/>
<rect x="0.735596" y="0.781647" width="32.3678" height="32.3678" rx="16.1839" fill="#5E5E5E" fill-opacity="0.18" style="mix-blend-mode:color-dodge"/>
<path d="M12.5517 16.8542C12.5517 16.7359 12.5722 16.6267 12.6131 16.5266C12.6586 16.4265 12.7269 16.331 12.8179 16.24L18.1343 11.0395C18.289 10.8894 18.4755 10.8143 18.6939 10.8143C18.8441 10.8143 18.9783 10.8507 19.0966 10.9235C19.2194 10.9918 19.3173 11.085 19.39 11.2033C19.4628 11.3216 19.4992 11.4559 19.4992 11.606C19.4992 11.8198 19.4151 12.0109 19.2467 12.1793L14.4558 16.8542L19.2467 21.5291C19.4151 21.6975 19.4992 21.8908 19.4992 22.1092C19.4992 22.2548 19.4628 22.3868 19.39 22.5051C19.3173 22.6279 19.2194 22.7235 19.0966 22.7917C18.9783 22.8645 18.8441 22.9009 18.6939 22.9009C18.4755 22.9009 18.289 22.8236 18.1343 22.6689L12.8179 17.4684C12.7269 17.3774 12.6586 17.2819 12.6131 17.1818C12.5722 17.0817 12.5517 16.9725 12.5517 16.8542Z" fill="white" fill-opacity="0.96"/>
</svg>
