<svg width="13" height="13" viewBox="0 0 13 13" fill="none" xmlns="http://www.w3.org/2000/svg">
<path fill-rule="evenodd" clip-rule="evenodd" d="M2.63426 11.2555H3.55153V10.2907H2.12883V11.2555H2.63426ZM12.1813 2.90181C12.1813 2.25388 11.6384 1.72876 10.9458 1.72876H6.22844C5.53581 1.72876 4.99294 2.25388 4.99294 2.90181V10.0736C4.99294 10.7215 5.53581 11.2466 6.22844 11.2466H10.9458C11.6384 11.2466 12.1813 10.7215 12.1813 10.0736V2.90181ZM11.1704 2.90181V10.0736C11.1704 10.1893 11.0768 10.2836 10.9458 10.2836H6.22844C6.0974 10.2836 6.0038 10.1893 6.0038 10.0736V2.90181C6.0038 2.78611 6.0974 2.69175 6.22844 2.69175H10.9458C11.0768 2.69175 11.1704 2.78611 11.1704 2.90181ZM8.58712 6.5046C9.39207 6.5046 10.0285 7.12047 10.0285 7.88054C10.0285 8.64062 9.39207 9.25829 8.58712 9.25829C7.78217 9.25829 7.1457 8.64062 7.1457 7.88054C7.1457 7.12047 7.78217 6.5046 8.58712 6.5046ZM3.04609 1.72876H1.96035C1.26772 1.72876 0.724854 2.25032 0.724854 2.89291V7.32873C0.724854 7.97132 1.26772 8.49288 1.96035 8.49288H3.55153V7.52989H1.96035C1.82931 7.52989 1.73572 7.4391 1.73572 7.32873V2.89291C1.73572 2.78255 1.82931 2.69175 1.96035 2.69175H3.55153V1.72876H3.04609ZM8.58712 3.7313C8.98023 3.7313 9.31719 4.03923 9.31719 4.41838C9.31719 4.79931 8.98023 5.10727 8.58712 5.10727C8.19401 5.10727 7.85705 4.79931 7.85705 4.41838C7.85705 4.03923 8.19401 3.7313 8.58712 3.7313Z" fill="#32D74B"/>
</svg>
