<svg width="12" height="11" viewBox="0 0 12 11" fill="none" xmlns="http://www.w3.org/2000/svg">
<path d="M0.0287497 3.6724C0.0287497 3.14366 0.113041 2.66091 0.281623 2.22412C0.450206 1.78351 0.685838 1.4042 0.98852 1.08619C1.29503 0.768185 1.65136 0.522975 2.05749 0.350561C2.46362 0.174316 2.9004 0.0861929 3.36783 0.0861929C3.91572 0.0861929 4.4004 0.203051 4.82185 0.436768C5.24331 0.666653 5.58047 0.97125 5.83335 1.35056C6.09388 0.97125 6.43296 0.666653 6.85059 0.436768C7.27204 0.203051 7.75672 0.0861929 8.30461 0.0861929C8.77588 0.0861929 9.21266 0.174316 9.61496 0.350561C10.0211 0.522975 10.3755 0.768185 10.6782 1.08619C10.9809 1.4042 11.2165 1.78351 11.3851 2.22412C11.5575 2.66091 11.6437 3.14366 11.6437 3.6724C11.6437 4.48849 11.4272 5.29884 10.9943 6.10343C10.5613 6.90803 9.95021 7.68964 9.16093 8.44826C8.37549 9.20688 7.44637 9.93102 6.37358 10.6207C6.28545 10.6781 6.19158 10.7299 6.09197 10.7758C5.99618 10.8218 5.90998 10.8448 5.83335 10.8448C5.76438 10.8448 5.68009 10.8218 5.58047 10.7758C5.48086 10.7299 5.3889 10.6781 5.30461 10.6207C4.23181 9.93102 3.29886 9.20688 2.50576 8.44826C1.71649 7.68964 1.10538 6.90803 0.672428 6.10343C0.243309 5.29884 0.0287497 4.48849 0.0287497 3.6724ZM1.18967 3.66665C1.18967 4.1724 1.31036 4.68773 1.55174 5.21263C1.79695 5.73753 2.13028 6.25669 2.55174 6.7701C2.97319 7.28351 3.45595 7.77585 4.00001 8.24711C4.54791 8.71455 5.12454 9.14941 5.7299 9.55171C5.78354 9.59386 5.81802 9.61493 5.83335 9.61493C5.84867 9.61493 5.88699 9.59386 5.94829 9.55171C6.55365 9.14941 7.12837 8.71455 7.67243 8.24711C8.21649 7.77585 8.69925 7.28351 9.1207 6.7701C9.54216 6.25669 9.87358 5.73753 10.115 5.21263C10.3602 4.68773 10.4828 4.1724 10.4828 3.66665C10.4828 3.18006 10.3851 2.75478 10.1897 2.39079C9.99427 2.02681 9.72607 1.74328 9.38507 1.54022C9.04791 1.33332 8.66668 1.22987 8.24139 1.22987C7.89273 1.22987 7.59388 1.29117 7.34484 1.41378C7.09963 1.53255 6.8889 1.68389 6.71266 1.8678C6.53641 2.04788 6.38316 2.22796 6.25289 2.40803C6.1686 2.51914 6.0958 2.59769 6.0345 2.64366C5.97703 2.68964 5.90998 2.71263 5.83335 2.71263C5.76055 2.71263 5.6935 2.69156 5.6322 2.64941C5.5709 2.60343 5.4981 2.52297 5.41381 2.40803C5.29503 2.22412 5.14752 2.04213 4.97128 1.86205C4.79503 1.68198 4.58047 1.53255 4.3276 1.41378C4.07473 1.29117 3.77588 1.22987 3.43105 1.22987C3.00576 1.22987 2.62262 1.33332 2.28162 1.54022C1.94446 1.74328 1.67817 2.02681 1.48277 2.39079C1.28737 2.75478 1.18967 3.18006 1.18967 3.66665Z" fill="white" fill-opacity="0.23" style="mix-blend-mode:lighten"/>
<path d="M0.0287497 3.6724C0.0287497 3.14366 0.113041 2.66091 0.281623 2.22412C0.450206 1.78351 0.685838 1.4042 0.98852 1.08619C1.29503 0.768185 1.65136 0.522975 2.05749 0.350561C2.46362 0.174316 2.9004 0.0861929 3.36783 0.0861929C3.91572 0.0861929 4.4004 0.203051 4.82185 0.436768C5.24331 0.666653 5.58047 0.97125 5.83335 1.35056C6.09388 0.97125 6.43296 0.666653 6.85059 0.436768C7.27204 0.203051 7.75672 0.0861929 8.30461 0.0861929C8.77588 0.0861929 9.21266 0.174316 9.61496 0.350561C10.0211 0.522975 10.3755 0.768185 10.6782 1.08619C10.9809 1.4042 11.2165 1.78351 11.3851 2.22412C11.5575 2.66091 11.6437 3.14366 11.6437 3.6724C11.6437 4.48849 11.4272 5.29884 10.9943 6.10343C10.5613 6.90803 9.95021 7.68964 9.16093 8.44826C8.37549 9.20688 7.44637 9.93102 6.37358 10.6207C6.28545 10.6781 6.19158 10.7299 6.09197 10.7758C5.99618 10.8218 5.90998 10.8448 5.83335 10.8448C5.76438 10.8448 5.68009 10.8218 5.58047 10.7758C5.48086 10.7299 5.3889 10.6781 5.30461 10.6207C4.23181 9.93102 3.29886 9.20688 2.50576 8.44826C1.71649 7.68964 1.10538 6.90803 0.672428 6.10343C0.243309 5.29884 0.0287497 4.48849 0.0287497 3.6724ZM1.18967 3.66665C1.18967 4.1724 1.31036 4.68773 1.55174 5.21263C1.79695 5.73753 2.13028 6.25669 2.55174 6.7701C2.97319 7.28351 3.45595 7.77585 4.00001 8.24711C4.54791 8.71455 5.12454 9.14941 5.7299 9.55171C5.78354 9.59386 5.81802 9.61493 5.83335 9.61493C5.84867 9.61493 5.88699 9.59386 5.94829 9.55171C6.55365 9.14941 7.12837 8.71455 7.67243 8.24711C8.21649 7.77585 8.69925 7.28351 9.1207 6.7701C9.54216 6.25669 9.87358 5.73753 10.115 5.21263C10.3602 4.68773 10.4828 4.1724 10.4828 3.66665C10.4828 3.18006 10.3851 2.75478 10.1897 2.39079C9.99427 2.02681 9.72607 1.74328 9.38507 1.54022C9.04791 1.33332 8.66668 1.22987 8.24139 1.22987C7.89273 1.22987 7.59388 1.29117 7.34484 1.41378C7.09963 1.53255 6.8889 1.68389 6.71266 1.8678C6.53641 2.04788 6.38316 2.22796 6.25289 2.40803C6.1686 2.51914 6.0958 2.59769 6.0345 2.64366C5.97703 2.68964 5.90998 2.71263 5.83335 2.71263C5.76055 2.71263 5.6935 2.69156 5.6322 2.64941C5.5709 2.60343 5.4981 2.52297 5.41381 2.40803C5.29503 2.22412 5.14752 2.04213 4.97128 1.86205C4.79503 1.68198 4.58047 1.53255 4.3276 1.41378C4.07473 1.29117 3.77588 1.22987 3.43105 1.22987C3.00576 1.22987 2.62262 1.33332 2.28162 1.54022C1.94446 1.74328 1.67817 2.02681 1.48277 2.39079C1.28737 2.75478 1.18967 3.18006 1.18967 3.66665Z" fill="#545454" style="mix-blend-mode:color-dodge"/>
</svg>
