<svg width="15" height="14" viewBox="0 0 15 14" fill="none" xmlns="http://www.w3.org/2000/svg">
<path d="M0.303778 4.78128C0.303778 4.1534 0.403874 3.58013 0.604066 3.06145C0.804257 2.53822 1.08407 2.08779 1.44351 1.71016C1.80749 1.33252 2.23062 1.04134 2.7129 0.836594C3.19518 0.627303 3.71386 0.522657 4.26894 0.522657C4.91956 0.522657 5.49511 0.661426 5.99559 0.938965C6.49607 1.21195 6.89645 1.57366 7.19674 2.02409C7.50613 1.57366 7.90878 1.21195 8.40471 0.938965C8.90519 0.661426 9.48074 0.522657 10.1314 0.522657C10.691 0.522657 11.2097 0.627303 11.6874 0.836594C12.1697 1.04134 12.5905 1.33252 12.95 1.71016C13.3094 2.08779 13.5892 2.53822 13.7894 3.06145C13.9942 3.58013 14.0965 4.1534 14.0965 4.78128C14.0965 5.75039 13.8395 6.71267 13.3253 7.66813C12.8112 8.62359 12.0855 9.55175 11.1482 10.4526C10.2155 11.3535 9.11221 12.2134 7.83826 13.0324C7.73362 13.1006 7.62215 13.162 7.50385 13.2166C7.39011 13.2712 7.28773 13.2985 7.19674 13.2985C7.11484 13.2985 7.01475 13.2712 6.89645 13.2166C6.77816 13.162 6.66896 13.1006 6.56886 13.0324C5.29492 12.2134 4.18704 11.3535 3.24523 10.4526C2.30797 9.55175 1.58227 8.62359 1.06815 7.66813C0.558568 6.71267 0.303778 5.75039 0.303778 4.78128ZM1.68237 4.77445C1.68237 5.37503 1.82569 5.98698 2.11233 6.6103C2.40351 7.23362 2.79935 7.85012 3.29983 8.4598C3.80031 9.06947 4.37358 9.65412 5.01965 10.2137C5.67028 10.7688 6.35502 11.2852 7.07389 11.763C7.13759 11.813 7.17854 11.838 7.19674 11.838C7.21494 11.838 7.26044 11.813 7.33323 11.763C8.0521 11.2852 8.73457 10.7688 9.38065 10.2137C10.0267 9.65412 10.6 9.06947 11.1005 8.4598C11.601 7.85012 11.9945 7.23362 12.2811 6.6103C12.5723 5.98698 12.7179 5.37503 12.7179 4.77445C12.7179 4.19663 12.6019 3.6916 12.3699 3.25937C12.1378 2.82714 11.8193 2.49045 11.4144 2.24931C11.014 2.00362 10.5613 1.88078 10.0563 1.88078C9.64226 1.88078 9.28738 1.95357 8.99164 2.09917C8.70045 2.24021 8.45021 2.41993 8.24092 2.63832C8.03163 2.85216 7.84964 3.066 7.69494 3.27984C7.59485 3.41179 7.5084 3.50506 7.4356 3.55965C7.36736 3.61425 7.28773 3.64155 7.19674 3.64155C7.11029 3.64155 7.03067 3.61653 6.95787 3.56648C6.88508 3.51188 6.79863 3.41634 6.69853 3.27984C6.55749 3.06145 6.38232 2.84533 6.17303 2.63149C5.96374 2.41765 5.70895 2.24021 5.40866 2.09917C5.10838 1.95357 4.75349 1.88078 4.34401 1.88078C3.83898 1.88078 3.384 2.00362 2.97907 2.24931C2.57868 2.49045 2.26247 2.82714 2.03043 3.25937C1.79839 3.6916 1.68237 4.19663 1.68237 4.77445Z" fill="white"/>
</svg>
