<svg width="33" height="34" viewBox="0 0 33 34" fill="none" xmlns="http://www.w3.org/2000/svg">
<rect x="0.574707" y="0.781616" width="32.3678" height="32.3678" rx="16.1839" fill="white" fill-opacity="0.07"/>
<rect x="0.574707" y="0.781616" width="32.3678" height="32.3678" rx="16.1839" fill="url(#paint0_radial_902_5996)" fill-opacity="0.18" style="mix-blend-mode:color-dodge"/>
<path d="M23.0508 12.7294C23.8555 13.1417 23.9736 13.8127 23.9558 14.7221C23.8978 17.6243 23.8844 20.4937 23.9156 23.3305C23.9165 23.4139 23.9009 23.4967 23.8696 23.574C23.8383 23.6513 23.7919 23.7216 23.7333 23.7809C23.6746 23.8402 23.6048 23.8873 23.5278 23.9194C23.4508 23.9515 23.3682 23.968 23.2848 23.968H18.6775C18.5143 23.968 18.3578 23.9032 18.2425 23.7878C18.1271 23.6725 18.0623 23.516 18.0623 23.3528L18.0533 19.2604C18.0533 19.1667 18.0073 19.1199 17.9151 19.1199H16.1275C16.0413 19.1199 15.9982 19.163 15.9982 19.2492L15.9737 23.2815C15.9731 23.4638 15.9003 23.6384 15.7712 23.7671C15.6421 23.8958 15.4672 23.968 15.2849 23.968H10.7578C10.595 23.968 10.4389 23.9035 10.3236 23.7886C10.2082 23.6737 10.1432 23.5178 10.1426 23.3551C10.1352 20.2419 10.1366 17.0886 10.147 13.8951C10.1485 13.4835 10.3796 13.141 10.8403 12.8676C12.1524 12.0889 13.469 11.3184 14.7901 10.5561C16.0963 9.80266 16.7405 9.30336 18.0556 9.82272C18.1254 9.85096 18.1826 9.89405 18.2272 9.952C18.2762 10.0144 18.3171 10.0545 18.3498 10.0724C19.948 10.9016 21.4548 11.9158 23.0508 12.7294ZM16.6245 11.0999L11.6048 13.9731C11.5845 13.9846 11.5675 14.0012 11.5558 14.0212C11.544 14.0412 11.5379 14.0638 11.5379 14.0868L11.5023 22.3007C11.5023 22.5103 11.607 22.6143 11.8166 22.6128L14.3599 22.5905C14.421 22.5899 14.4794 22.5652 14.5224 22.5218C14.5653 22.4784 14.5895 22.4198 14.5895 22.3587C14.5954 21.0911 14.617 19.8087 14.6541 18.5114C14.6645 18.0924 14.8451 17.8591 15.1958 17.8115C16.2969 17.6644 17.5741 17.6711 19.0274 17.8316C19.1047 17.8405 19.1656 17.8769 19.2102 17.9408C19.6828 18.6273 19.4309 21.3423 19.4643 22.4657C19.4655 22.4974 19.4789 22.5275 19.5018 22.5495C19.5246 22.5715 19.5551 22.5838 19.5869 22.5838H22.3732C22.4 22.5838 22.4266 22.5785 22.4513 22.5682C22.4761 22.5578 22.4985 22.5427 22.5174 22.5236C22.5363 22.5045 22.5512 22.4819 22.5612 22.4571C22.5713 22.4322 22.5763 22.4056 22.576 22.3787L22.5069 14.1738C22.5062 14.1263 22.4931 14.0798 22.4689 14.0387C22.4446 13.9977 22.4101 13.9636 22.3687 13.9397L17.4092 11.0999C17.2897 11.0315 17.1545 10.9955 17.0169 10.9955C16.8792 10.9955 16.744 11.0315 16.6245 11.0999Z" fill="white" fill-opacity="0.96"/>
<defs>
<radialGradient id="paint0_radial_902_5996" cx="0" cy="0" r="1" gradientUnits="userSpaceOnUse" gradientTransform="translate(16.7586 24.6897) rotate(90) scale(17.6552)">
<stop stop-color="#5E5E5E"/>
<stop offset="1" stop-color="#5E5E5E" stop-opacity="0"/>
</radialGradient>
</defs>
</svg>
