<svg width="13" height="13" viewBox="0 0 13 13" fill="none" xmlns="http://www.w3.org/2000/svg">
<path fill-rule="evenodd" clip-rule="evenodd" d="M3.10903 7.4338L3.10903 11.9723C3.10903 12.1969 2.93439 12.3794 2.69426 12.3794L0.991513 12.3794C0.773212 12.3794 0.598572 12.1969 0.598572 11.9723L0.598573 1.01619C0.598573 0.791554 0.773213 0.609281 0.991514 0.609281L2.69426 0.609281C2.93439 0.609281 3.10903 0.791555 3.10903 1.01619L3.10903 5.55466L11.4045 0.76318C11.6009 0.650318 11.8411 0.650318 12.0375 0.76318C12.234 0.876041 12.365 1.08451 12.365 1.31023C12.365 3.68709 12.365 9.30135 12.365 11.6784C12.365 11.9039 12.234 12.1124 12.0375 12.2253C11.8411 12.3381 11.6009 12.3381 11.4045 12.2255L3.10903 7.4338Z" fill="white" fill-opacity="0.07"/>
<path fill-rule="evenodd" clip-rule="evenodd" d="M3.10903 7.4338L3.10903 11.9723C3.10903 12.1969 2.93439 12.3794 2.69426 12.3794L0.991513 12.3794C0.773212 12.3794 0.598572 12.1969 0.598572 11.9723L0.598573 1.01619C0.598573 0.791554 0.773213 0.609281 0.991514 0.609281L2.69426 0.609281C2.93439 0.609281 3.10903 0.791555 3.10903 1.01619L3.10903 5.55466L11.4045 0.76318C11.6009 0.650318 11.8411 0.650318 12.0375 0.76318C12.234 0.876041 12.365 1.08451 12.365 1.31023C12.365 3.68709 12.365 9.30135 12.365 11.6784C12.365 11.9039 12.234 12.1124 12.0375 12.2253C11.8411 12.3381 11.6009 12.3381 11.4045 12.2255L3.10903 7.4338Z" fill="#5E5E5E" fill-opacity="0.18" style="mix-blend-mode:color-dodge"/>
</svg>
