<svg width="33" height="33" viewBox="0 0 33 33" fill="none" xmlns="http://www.w3.org/2000/svg">
<path fill-rule="evenodd" clip-rule="evenodd" d="M10.8178 9.85059H10.7955C10.4323 9.85059 10.1379 10.145 10.1379 10.5081V22.9416C10.1379 23.3047 10.4323 23.5991 10.7955 23.5991H10.8178C11.1809 23.5991 11.4753 23.3047 11.4753 22.9416V10.5081C11.4753 10.145 11.1809 9.85059 10.8178 9.85059ZM18.6951 23.4944C18.4707 23.2566 18.3615 22.9772 18.3675 22.6563C18.4418 18.2755 18.4462 14.371 18.3808 10.9428C18.3585 9.82606 18.9715 9.68563 19.8319 10.1671C20.9955 10.8195 22.2385 11.5342 23.5611 12.3114C23.665 12.3724 23.7511 12.4597 23.8109 12.5645C23.8707 12.6693 23.9022 12.788 23.9021 12.9088V23.053C23.9021 23.1267 23.8876 23.1996 23.8593 23.2676C23.831 23.3357 23.7896 23.3974 23.7374 23.4494C23.6853 23.5014 23.6233 23.5426 23.5552 23.5706C23.487 23.5985 23.414 23.6128 23.3404 23.6125L18.9225 23.5924C18.8333 23.5924 18.7575 23.5597 18.6951 23.4944ZM14.946 9.88626H14.9682C15.3449 9.88626 15.6503 10.1916 15.6503 10.5683V22.8992C15.6503 23.2759 15.3449 23.5813 14.9682 23.5813H14.946C14.5693 23.5813 14.2639 23.2759 14.2639 22.8992V10.5683C14.2639 10.1916 14.5693 9.88626 14.946 9.88626Z" fill="white" fill-opacity="0.23" style="mix-blend-mode:lighten"/>
<path fill-rule="evenodd" clip-rule="evenodd" d="M10.8178 9.85059H10.7955C10.4323 9.85059 10.1379 10.145 10.1379 10.5081V22.9416C10.1379 23.3047 10.4323 23.5991 10.7955 23.5991H10.8178C11.1809 23.5991 11.4753 23.3047 11.4753 22.9416V10.5081C11.4753 10.145 11.1809 9.85059 10.8178 9.85059ZM18.6951 23.4944C18.4707 23.2566 18.3615 22.9772 18.3675 22.6563C18.4418 18.2755 18.4462 14.371 18.3808 10.9428C18.3585 9.82606 18.9715 9.68563 19.8319 10.1671C20.9955 10.8195 22.2385 11.5342 23.5611 12.3114C23.665 12.3724 23.7511 12.4597 23.8109 12.5645C23.8707 12.6693 23.9022 12.788 23.9021 12.9088V23.053C23.9021 23.1267 23.8876 23.1996 23.8593 23.2676C23.831 23.3357 23.7896 23.3974 23.7374 23.4494C23.6853 23.5014 23.6233 23.5426 23.5552 23.5706C23.487 23.5985 23.414 23.6128 23.3404 23.6125L18.9225 23.5924C18.8333 23.5924 18.7575 23.5597 18.6951 23.4944ZM14.946 9.88626H14.9682C15.3449 9.88626 15.6503 10.1916 15.6503 10.5683V22.8992C15.6503 23.2759 15.3449 23.5813 14.9682 23.5813H14.946C14.5693 23.5813 14.2639 23.2759 14.2639 22.8992V10.5683C14.2639 10.1916 14.5693 9.88626 14.946 9.88626Z" fill="#545454" style="mix-blend-mode:color-dodge"/>
</svg>
