<svg width="7" height="12" viewBox="0 0 7 12" fill="none" xmlns="http://www.w3.org/2000/svg">
<path d="M6.98331 3.46052C6.98331 3.56469 6.95278 3.65449 6.89172 3.72992C6.83066 3.80176 6.74804 3.84845 6.64387 3.87L4.16543 4.41418C4.04689 4.43933 3.97326 4.47166 3.94452 4.51117C3.91579 4.55068 3.90142 4.63329 3.90142 4.75901V9.69436C3.90142 10.0787 3.83676 10.411 3.70745 10.6911C3.58173 10.9713 3.4165 11.1994 3.21176 11.3754C3.00702 11.5514 2.78432 11.6825 2.54366 11.7687C2.30659 11.8549 2.07671 11.898 1.854 11.898C1.38705 11.898 1.00451 11.7615 0.706375 11.4885C0.408242 11.2155 0.259176 10.8617 0.259176 10.4271C0.259176 10.0033 0.393875 9.65125 0.663271 9.37108C0.932668 9.09091 1.34574 8.89156 1.9025 8.77302L2.76456 8.59522C2.98367 8.54852 3.08245 8.40305 3.0609 8.1588L3.05012 2.19436C3.05012 1.8639 3.24409 1.65736 3.63202 1.57474L6.40681 0.965909C6.56126 0.933581 6.69596 0.964113 6.8109 1.0575C6.92584 1.15089 6.98331 1.27841 6.98331 1.44005V3.46052Z" fill="white" fill-opacity="0.23" style="mix-blend-mode:lighten"/>
<path d="M6.98331 3.46052C6.98331 3.56469 6.95278 3.65449 6.89172 3.72992C6.83066 3.80176 6.74804 3.84845 6.64387 3.87L4.16543 4.41418C4.04689 4.43933 3.97326 4.47166 3.94452 4.51117C3.91579 4.55068 3.90142 4.63329 3.90142 4.75901V9.69436C3.90142 10.0787 3.83676 10.411 3.70745 10.6911C3.58173 10.9713 3.4165 11.1994 3.21176 11.3754C3.00702 11.5514 2.78432 11.6825 2.54366 11.7687C2.30659 11.8549 2.07671 11.898 1.854 11.898C1.38705 11.898 1.00451 11.7615 0.706375 11.4885C0.408242 11.2155 0.259176 10.8617 0.259176 10.4271C0.259176 10.0033 0.393875 9.65125 0.663271 9.37108C0.932668 9.09091 1.34574 8.89156 1.9025 8.77302L2.76456 8.59522C2.98367 8.54852 3.08245 8.40305 3.0609 8.1588L3.05012 2.19436C3.05012 1.8639 3.24409 1.65736 3.63202 1.57474L6.40681 0.965909C6.56126 0.933581 6.69596 0.964113 6.8109 1.0575C6.92584 1.15089 6.98331 1.27841 6.98331 1.44005V3.46052Z" fill="#545454" style="mix-blend-mode:color-dodge"/>
</svg>
