<svg width="15" height="16" viewBox="0 0 15 16" fill="none" xmlns="http://www.w3.org/2000/svg">
<path d="M7.98506 15.116C7.79397 15.116 7.63017 15.05 7.49368 14.9181C7.36173 14.7862 7.29576 14.6246 7.29576 14.4335V10.7345L3.89023 13.8876C3.74464 14.0241 3.58084 14.0946 3.39885 14.0991C3.21686 14.1037 3.03714 14.0241 2.8597 13.8603L1.71315 14.768C1.6358 14.8226 1.5539 14.8453 1.46746 14.8362C1.38101 14.8317 1.30139 14.7975 1.22859 14.7338L1.03067 14.5291C0.957878 14.4608 0.919204 14.3812 0.914655 14.2902C0.910105 14.1992 0.935129 14.1196 0.989726 14.0514L1.89059 12.9048C1.7268 12.7183 1.64717 12.5363 1.65172 12.3588C1.65627 12.1768 1.7268 12.0108 1.86329 11.8606L8.19662 5.04956C8.15113 4.64918 8.20572 4.25107 8.36042 3.85524C8.51966 3.45941 8.77672 3.08632 9.13161 2.73599L13.0149 6.61925C12.6645 6.97868 12.2892 7.2403 11.8888 7.40409C11.4884 7.56333 11.0903 7.62021 10.6945 7.57471L8.68118 9.43785L8.67435 14.4335C8.67435 14.6246 8.60611 14.7862 8.46961 14.9181C8.33767 15.05 8.17615 15.116 7.98506 15.116ZM2.6959 12.4476L3.31695 13.0618L9.53427 7.14475C9.44782 7.09015 9.36137 7.02646 9.27493 6.95366C9.18848 6.88086 9.10658 6.80352 9.02924 6.72162C8.94734 6.63972 8.87227 6.55555 8.80402 6.4691C8.73578 6.37811 8.67663 6.28711 8.62658 6.19612L2.6959 12.4476ZM9.86868 1.99209C10.2691 1.58716 10.7013 1.3119 11.1654 1.1663C11.6295 1.02071 12.0913 1.00933 12.5508 1.13218C13.0149 1.25502 13.4471 1.51209 13.8475 1.90337C14.2433 2.30375 14.5027 2.73599 14.6255 3.20007C14.7483 3.66415 14.7347 4.12823 14.5846 4.59231C14.439 5.05639 14.1637 5.48635 13.7588 5.88218L9.86868 1.99209Z" fill="white"/>
</svg>
