<svg width="24" height="25" viewBox="0 0 24 25" fill="none" xmlns="http://www.w3.org/2000/svg">
<path fill-rule="evenodd" clip-rule="evenodd" d="M12 0.724182C18.4969 0.724182 23.7709 5.99808 23.7709 12.4942C23.7709 18.9905 18.4969 24.2644 12 24.2644C5.50301 24.2644 0.229004 18.9905 0.229004 12.4942C0.229004 5.99808 5.50301 0.724182 12 0.724182ZM10.6241 7.7891C10.6241 7.52734 10.3948 7.31469 10.1464 7.31469H8.15911C7.89159 7.31469 7.6814 7.52734 7.6814 7.7891V17.1416C7.6814 17.4036 7.89159 17.6162 8.15911 17.6162H10.1464C10.3948 17.6162 10.6241 17.4036 10.6241 17.1416V7.7891ZM16.5096 7.7891C16.5096 7.52734 16.2994 7.31469 16.0319 7.31469H14.0446C13.7771 7.31469 13.5669 7.52734 13.5669 7.7891V17.1416C13.5669 17.4036 13.7771 17.6162 14.0446 17.6162H16.0319C16.2994 17.6162 16.5096 17.4036 16.5096 17.1416V7.7891Z" fill="#FEFEFE"/>
</svg>
