<svg width="13" height="13" viewBox="0 0 13 13" fill="none" xmlns="http://www.w3.org/2000/svg">
<path fill-rule="evenodd" clip-rule="evenodd" d="M10.3897 9.88673C10.4103 9.88673 10.429 9.89743 10.4365 9.91701C10.4459 9.93481 10.4404 9.95617 10.4254 9.97041C10.27 10.1182 9.95914 10.4136 9.95914 10.4136C9.74573 10.6166 9.74573 10.9459 9.95914 11.1488C10.1725 11.3517 10.517 11.3517 10.7304 11.1488C10.7304 11.1488 12.1475 9.80309 12.5237 9.44353C12.5481 9.42039 12.5612 9.38834 12.5612 9.3563C12.5612 9.32426 12.5481 9.29221 12.5237 9.26907C12.1475 8.9095 10.7304 7.56379 10.7304 7.56379C10.517 7.36086 10.1725 7.36086 9.95914 7.56379C9.74573 7.76671 9.74573 8.09603 9.95914 8.29895C9.95914 8.29895 10.2868 8.61045 10.4478 8.76353C10.4627 8.77777 10.4684 8.79913 10.459 8.81693C10.4515 8.83651 10.4328 8.84722 10.4122 8.84722C10.1277 8.84722 9.46131 8.84541 9.46131 8.84541C9.21047 8.84541 8.95951 8.72971 8.69556 8.5606C8.36048 8.34344 8.02168 8.0373 7.67724 7.68129C7.67724 7.68129 7.4751 7.47302 7.37027 7.36444C7.35342 7.34664 7.33095 7.33596 7.30475 7.33596C7.28041 7.33418 7.25608 7.34306 7.23923 7.35908C7.0876 7.49258 6.72441 7.80944 6.57278 7.94295C6.55406 7.95897 6.5428 7.98033 6.5428 8.00347C6.54093 8.02661 6.55037 8.04975 6.56722 8.06755C6.67205 8.17613 6.87419 8.38441 6.87419 8.38441C7.75215 9.29044 8.64698 9.88318 9.45941 9.88318C9.45941 9.88318 10.1108 9.88495 10.3897 9.88673ZM10.4254 3.11729C10.4404 3.13153 10.4459 3.15111 10.4365 3.17069C10.429 3.18849 10.4103 3.20093 10.3897 3.20093C10.1108 3.20093 9.45941 3.20271 9.45941 3.20271C8.88846 3.20271 8.2801 3.47863 7.67358 3.9628C6.91169 4.57157 6.1216 5.52033 5.33538 6.47265C4.59782 7.36266 3.866 8.258 3.15278 8.82761C2.77651 9.12843 2.4226 9.34562 2.06879 9.34562C2.06879 9.34562 1.48474 9.34562 1.25449 9.34562C1.20207 9.34562 1.16089 9.38476 1.16089 9.43282C1.16089 9.6304 1.16089 10.0986 1.16089 10.2944C1.16089 10.3193 1.17037 10.3406 1.18721 10.3584C1.20593 10.3745 1.22828 10.3834 1.25449 10.3834C1.40986 10.3834 1.70756 10.3834 1.70756 10.3834H2.06879C2.64162 10.3834 3.24825 10.1093 3.85477 9.6233C4.61666 9.01453 5.40663 8.06577 6.19473 7.11346C6.93041 6.22344 7.66411 5.32807 8.37733 4.75846C8.75359 4.45764 9.10561 4.24048 9.45941 4.24048H9.46131C9.46131 4.24048 10.1277 4.23871 10.4122 4.23871C10.4328 4.23871 10.4515 4.25115 10.459 4.26895C10.4684 4.28675 10.4627 4.30811 10.4478 4.32235C10.2868 4.47722 9.95914 4.78874 9.95914 4.78874C9.74573 4.99167 9.74573 5.31918 9.95914 5.5221C10.1725 5.72503 10.517 5.72503 10.7304 5.5221C10.7304 5.5221 12.1475 4.17639 12.5237 3.81682C12.5481 3.79368 12.5612 3.76345 12.5612 3.72962C12.5612 3.69758 12.5481 3.66554 12.5237 3.6424C12.1475 3.28461 10.7304 1.93711 10.7304 1.93711C10.517 1.73597 10.1725 1.73597 9.95914 1.93711C9.74573 2.14004 9.74573 2.46936 9.95914 2.67228C9.95914 2.67228 10.27 2.96776 10.4254 3.11729ZM1.70756 3.74207H2.06879C2.38328 3.74207 2.69786 3.9165 3.0292 4.16392C3.44852 4.47543 3.87349 4.90979 4.30404 5.39395C4.30404 5.39395 4.49486 5.60934 4.59595 5.72326C4.61093 5.74106 4.63538 5.75173 4.65971 5.75351C4.68405 5.75707 4.70827 5.74817 4.72699 5.73393C4.88423 5.60755 5.2605 5.30493 5.41962 5.17854C5.43834 5.16252 5.44963 5.14119 5.4515 5.11805C5.45337 5.09491 5.44585 5.07174 5.43088 5.05394C5.32979 4.94002 5.13707 4.72463 5.13707 4.72463C4.55114 4.06424 3.96703 3.49286 3.40169 3.13863C2.95055 2.85561 2.50122 2.70253 2.06879 2.70253H1.16089V3.74207H1.70756Z" fill="white" fill-opacity="0.23" style="mix-blend-mode:lighten"/>
<path fill-rule="evenodd" clip-rule="evenodd" d="M10.3897 9.88673C10.4103 9.88673 10.429 9.89743 10.4365 9.91701C10.4459 9.93481 10.4404 9.95617 10.4254 9.97041C10.27 10.1182 9.95914 10.4136 9.95914 10.4136C9.74573 10.6166 9.74573 10.9459 9.95914 11.1488C10.1725 11.3517 10.517 11.3517 10.7304 11.1488C10.7304 11.1488 12.1475 9.80309 12.5237 9.44353C12.5481 9.42039 12.5612 9.38834 12.5612 9.3563C12.5612 9.32426 12.5481 9.29221 12.5237 9.26907C12.1475 8.9095 10.7304 7.56379 10.7304 7.56379C10.517 7.36086 10.1725 7.36086 9.95914 7.56379C9.74573 7.76671 9.74573 8.09603 9.95914 8.29895C9.95914 8.29895 10.2868 8.61045 10.4478 8.76353C10.4627 8.77777 10.4684 8.79913 10.459 8.81693C10.4515 8.83651 10.4328 8.84722 10.4122 8.84722C10.1277 8.84722 9.46131 8.84541 9.46131 8.84541C9.21047 8.84541 8.95951 8.72971 8.69556 8.5606C8.36048 8.34344 8.02168 8.0373 7.67724 7.68129C7.67724 7.68129 7.4751 7.47302 7.37027 7.36444C7.35342 7.34664 7.33095 7.33596 7.30475 7.33596C7.28041 7.33418 7.25608 7.34306 7.23923 7.35908C7.0876 7.49258 6.72441 7.80944 6.57278 7.94295C6.55406 7.95897 6.5428 7.98033 6.5428 8.00347C6.54093 8.02661 6.55037 8.04975 6.56722 8.06755C6.67205 8.17613 6.87419 8.38441 6.87419 8.38441C7.75215 9.29044 8.64698 9.88318 9.45941 9.88318C9.45941 9.88318 10.1108 9.88495 10.3897 9.88673ZM10.4254 3.11729C10.4404 3.13153 10.4459 3.15111 10.4365 3.17069C10.429 3.18849 10.4103 3.20093 10.3897 3.20093C10.1108 3.20093 9.45941 3.20271 9.45941 3.20271C8.88846 3.20271 8.2801 3.47863 7.67358 3.9628C6.91169 4.57157 6.1216 5.52033 5.33538 6.47265C4.59782 7.36266 3.866 8.258 3.15278 8.82761C2.77651 9.12843 2.4226 9.34562 2.06879 9.34562C2.06879 9.34562 1.48474 9.34562 1.25449 9.34562C1.20207 9.34562 1.16089 9.38476 1.16089 9.43282C1.16089 9.6304 1.16089 10.0986 1.16089 10.2944C1.16089 10.3193 1.17037 10.3406 1.18721 10.3584C1.20593 10.3745 1.22828 10.3834 1.25449 10.3834C1.40986 10.3834 1.70756 10.3834 1.70756 10.3834H2.06879C2.64162 10.3834 3.24825 10.1093 3.85477 9.6233C4.61666 9.01453 5.40663 8.06577 6.19473 7.11346C6.93041 6.22344 7.66411 5.32807 8.37733 4.75846C8.75359 4.45764 9.10561 4.24048 9.45941 4.24048H9.46131C9.46131 4.24048 10.1277 4.23871 10.4122 4.23871C10.4328 4.23871 10.4515 4.25115 10.459 4.26895C10.4684 4.28675 10.4627 4.30811 10.4478 4.32235C10.2868 4.47722 9.95914 4.78874 9.95914 4.78874C9.74573 4.99167 9.74573 5.31918 9.95914 5.5221C10.1725 5.72503 10.517 5.72503 10.7304 5.5221C10.7304 5.5221 12.1475 4.17639 12.5237 3.81682C12.5481 3.79368 12.5612 3.76345 12.5612 3.72962C12.5612 3.69758 12.5481 3.66554 12.5237 3.6424C12.1475 3.28461 10.7304 1.93711 10.7304 1.93711C10.517 1.73597 10.1725 1.73597 9.95914 1.93711C9.74573 2.14004 9.74573 2.46936 9.95914 2.67228C9.95914 2.67228 10.27 2.96776 10.4254 3.11729ZM1.70756 3.74207H2.06879C2.38328 3.74207 2.69786 3.9165 3.0292 4.16392C3.44852 4.47543 3.87349 4.90979 4.30404 5.39395C4.30404 5.39395 4.49486 5.60934 4.59595 5.72326C4.61093 5.74106 4.63538 5.75173 4.65971 5.75351C4.68405 5.75707 4.70827 5.74817 4.72699 5.73393C4.88423 5.60755 5.2605 5.30493 5.41962 5.17854C5.43834 5.16252 5.44963 5.14119 5.4515 5.11805C5.45337 5.09491 5.44585 5.07174 5.43088 5.05394C5.32979 4.94002 5.13707 4.72463 5.13707 4.72463C4.55114 4.06424 3.96703 3.49286 3.40169 3.13863C2.95055 2.85561 2.50122 2.70253 2.06879 2.70253H1.16089V3.74207H1.70756Z" fill="#545454" style="mix-blend-mode:color-dodge"/>
</svg>
