<svg width="13" height="13" viewBox="0 0 13 13" fill="none" xmlns="http://www.w3.org/2000/svg">
<path fill-rule="evenodd" clip-rule="evenodd" d="M6.86495 9.00178L7.46968 8.42505C7.68308 8.22212 7.68308 7.89461 7.46968 7.69169C7.25815 7.48876 6.91177 7.48876 6.69837 7.69169L4.81324 9.48417L6.69837 11.2767C6.91177 11.4778 7.25815 11.4778 7.46968 11.2767C7.68308 11.0738 7.68308 10.7444 7.46968 10.5415L6.86495 9.96658H9.08133C10.5171 9.96658 11.6834 8.85581 11.6834 7.49053V3.86817C11.6834 2.50288 10.5171 1.39392 9.08133 1.39392H3.26141C1.82374 1.39392 0.657471 2.50288 0.657471 3.86817V7.49053C0.657471 8.85581 1.82374 9.96658 3.26141 9.96658H3.7781V9.00178H3.26141C2.38345 9.00178 1.67214 8.32358 1.67214 7.49053V3.86817C1.67214 3.03511 2.38345 2.35695 3.26141 2.35695H9.08133C9.95741 2.35695 10.6707 3.03511 10.6707 3.86817V7.49053C10.6707 8.32358 9.95741 9.00178 9.08133 9.00178H6.86495Z" fill="white" fill-opacity="0.23" style="mix-blend-mode:lighten"/>
<path fill-rule="evenodd" clip-rule="evenodd" d="M6.86495 9.00178L7.46968 8.42505C7.68308 8.22212 7.68308 7.89461 7.46968 7.69169C7.25815 7.48876 6.91177 7.48876 6.69837 7.69169L4.81324 9.48417L6.69837 11.2767C6.91177 11.4778 7.25815 11.4778 7.46968 11.2767C7.68308 11.0738 7.68308 10.7444 7.46968 10.5415L6.86495 9.96658H9.08133C10.5171 9.96658 11.6834 8.85581 11.6834 7.49053V3.86817C11.6834 2.50288 10.5171 1.39392 9.08133 1.39392H3.26141C1.82374 1.39392 0.657471 2.50288 0.657471 3.86817V7.49053C0.657471 8.85581 1.82374 9.96658 3.26141 9.96658H3.7781V9.00178H3.26141C2.38345 9.00178 1.67214 8.32358 1.67214 7.49053V3.86817C1.67214 3.03511 2.38345 2.35695 3.26141 2.35695H9.08133C9.95741 2.35695 10.6707 3.03511 10.6707 3.86817V7.49053C10.6707 8.32358 9.95741 9.00178 9.08133 9.00178H6.86495Z" fill="#545454" style="mix-blend-mode:color-dodge"/>
</svg>
