<svg width="13" height="13" viewBox="0 0 13 13" fill="none" xmlns="http://www.w3.org/2000/svg">
<path fill-rule="evenodd" clip-rule="evenodd" d="M9.89072 5.55485V1.01639C9.89072 0.791761 10.0654 0.609253 10.3055 0.609253H12.0082C12.2265 0.609253 12.4012 0.791761 12.4012 1.01639V11.9725C12.4012 12.1971 12.2265 12.3794 12.0082 12.3794H10.3055C10.0654 12.3794 9.89072 12.1971 9.89072 11.9725V7.43398L1.59529 12.2255C1.39882 12.3383 1.15869 12.3383 0.962217 12.2255C0.765746 12.1126 0.634766 11.9041 0.634766 11.6784C0.634766 9.30156 0.634766 3.6873 0.634766 1.31022C0.634766 1.08472 0.765746 0.876247 0.962217 0.763385C1.15869 0.650524 1.39882 0.650507 1.59529 0.763151L9.89072 5.55485Z" fill="white" fill-opacity="0.07"/>
<path fill-rule="evenodd" clip-rule="evenodd" d="M9.89072 5.55485V1.01639C9.89072 0.791761 10.0654 0.609253 10.3055 0.609253H12.0082C12.2265 0.609253 12.4012 0.791761 12.4012 1.01639V11.9725C12.4012 12.1971 12.2265 12.3794 12.0082 12.3794H10.3055C10.0654 12.3794 9.89072 12.1971 9.89072 11.9725V7.43398L1.59529 12.2255C1.39882 12.3383 1.15869 12.3383 0.962217 12.2255C0.765746 12.1126 0.634766 11.9041 0.634766 11.6784C0.634766 9.30156 0.634766 3.6873 0.634766 1.31022C0.634766 1.08472 0.765746 0.876247 0.962217 0.763385C1.15869 0.650524 1.39882 0.650507 1.59529 0.763151L9.89072 5.55485Z" fill="#5E5E5E" fill-opacity="0.18" style="mix-blend-mode:color-dodge"/>
</svg>
