<svg width="12" height="11" viewBox="0 0 12 11" fill="none" xmlns="http://www.w3.org/2000/svg">
<path d="M0.733365 4.56253C0.733365 2.19184 2.66224 0.262959 5.03293 0.262959C7.40362 0.262959 9.3325 2.19184 9.3325 4.56253C9.3325 5.54313 9.00384 6.44292 8.44888 7.1649L11.0836 9.81576C11.1967 9.92891 11.2614 10.0852 11.2614 10.2576C11.2614 10.6186 11.0081 10.8933 10.6418 10.8933C10.4694 10.8933 10.3077 10.8341 10.1838 10.7102L7.53293 8.05391C6.82711 8.56037 5.97043 8.8621 5.03293 8.8621C2.66224 8.8621 0.733365 6.93322 0.733365 4.56253ZM1.6547 4.56253C1.6547 6.42675 3.16871 7.94076 5.03293 7.94076C6.89716 7.94076 8.41117 6.42675 8.41117 4.56253C8.41117 2.6983 6.89716 1.1843 5.03293 1.1843C3.16871 1.1843 1.6547 2.6983 1.6547 4.56253Z" fill="white" fill-opacity="0.6"/>
</svg>
