<svg width="33" height="33" viewBox="0 0 33 33" fill="none" xmlns="http://www.w3.org/2000/svg">
<path d="M21.0138 19.3568L24.014 22.3593C24.0571 22.4009 24.0839 22.4514 24.0943 22.5108C24.2748 23.5384 23.2316 23.5652 22.69 23.028C21.7954 22.1423 20.9216 21.2351 20.0687 20.3063C20.0152 20.2484 19.9557 20.2417 19.8903 20.2863C16.8411 22.3325 12.9849 21.9491 10.7447 19.0692C6.99328 14.2457 11.6987 7.572 17.5387 9.07881C22.0614 10.2468 23.7287 15.4649 21.0004 19.1651C20.9499 19.2334 20.9543 19.2973 21.0138 19.3568ZM20.9619 15.1467C20.9411 13.8226 20.3864 12.5612 19.42 11.6399C18.4536 10.7186 17.1545 10.2129 15.8086 10.2341C15.1422 10.2445 14.4843 10.384 13.8725 10.6446C13.2608 10.9051 12.7071 11.2817 12.2431 11.7527C11.7792 12.2236 11.414 12.7799 11.1685 13.3896C10.923 13.9993 10.8019 14.6505 10.8122 15.3062C10.833 16.6302 11.3876 17.8916 12.354 18.8129C13.3205 19.7342 14.6195 20.2399 15.9655 20.2188C16.6319 20.2083 17.2898 20.0688 17.9015 19.8083C18.5133 19.5477 19.067 19.1712 19.5309 18.7002C19.9949 18.2292 20.3601 17.673 20.6056 17.0633C20.8511 16.4535 20.9722 15.8023 20.9619 15.1467Z" fill="white" fill-opacity="0.23" style="mix-blend-mode:lighten"/>
<path d="M21.0138 19.3568L24.014 22.3593C24.0571 22.4009 24.0839 22.4514 24.0943 22.5108C24.2748 23.5384 23.2316 23.5652 22.69 23.028C21.7954 22.1423 20.9216 21.2351 20.0687 20.3063C20.0152 20.2484 19.9557 20.2417 19.8903 20.2863C16.8411 22.3325 12.9849 21.9491 10.7447 19.0692C6.99328 14.2457 11.6987 7.572 17.5387 9.07881C22.0614 10.2468 23.7287 15.4649 21.0004 19.1651C20.9499 19.2334 20.9543 19.2973 21.0138 19.3568ZM20.9619 15.1467C20.9411 13.8226 20.3864 12.5612 19.42 11.6399C18.4536 10.7186 17.1545 10.2129 15.8086 10.2341C15.1422 10.2445 14.4843 10.384 13.8725 10.6446C13.2608 10.9051 12.7071 11.2817 12.2431 11.7527C11.7792 12.2236 11.414 12.7799 11.1685 13.3896C10.923 13.9993 10.8019 14.6505 10.8122 15.3062C10.833 16.6302 11.3876 17.8916 12.354 18.8129C13.3205 19.7342 14.6195 20.2399 15.9655 20.2188C16.6319 20.2083 17.2898 20.0688 17.9015 19.8083C18.5133 19.5477 19.067 19.1712 19.5309 18.7002C19.9949 18.2292 20.3601 17.673 20.6056 17.0633C20.8511 16.4535 20.9722 15.8023 20.9619 15.1467Z" fill="#545454" style="mix-blend-mode:color-dodge"/>
</svg>
