<svg width="30" height="31" viewBox="0 0 30 31" fill="none" xmlns="http://www.w3.org/2000/svg">
<circle cx="15.2759" cy="15.5518" r="12.8736" fill="#1ED760"/>
<path d="M21.1281 20.7223C20.9082 21.0713 20.439 21.169 20.0724 20.9596C17.1839 19.2845 13.5622 18.9076 9.28067 19.8289C8.87012 19.9126 8.45956 19.6753 8.37159 19.2845C8.28361 18.8936 8.53288 18.5027 8.94343 18.419C13.6208 17.4 17.6384 17.8327 20.8642 19.7172C21.2308 19.9266 21.3481 20.3733 21.1281 20.7223ZM22.6237 17.5395C22.3451 17.9723 21.7586 18.0979 21.3041 17.8467C18.005 15.9063 12.9757 15.3479 9.0754 16.4786C8.5622 16.6182 8.03435 16.353 7.88772 15.8784C7.74109 15.3898 8.01968 14.8873 8.53288 14.7477C12.9903 13.4634 18.5328 14.0776 22.3305 16.2972C22.7557 16.5484 22.9023 17.1068 22.6237 17.5395ZM22.7557 14.2172C18.7968 11.9837 12.2719 11.7743 8.48889 12.8632C7.88772 13.0446 7.24256 12.7236 7.05194 12.1373C6.86133 11.5649 7.21323 10.9507 7.8144 10.7692C12.1546 9.51289 19.3686 9.76416 23.914 12.3327C24.4566 12.6398 24.6325 13.3099 24.3099 13.8263C24.002 14.3568 23.2982 14.5383 22.7557 14.2172Z" fill="black"/>
</svg>
