<svg width="15" height="15" viewBox="0 0 15 15" fill="none" xmlns="http://www.w3.org/2000/svg">
<rect x="3.97607" y="3.43359" width="7.35632" height="7.35632" fill="white" fill-opacity="0.96"/>
<path d="M4.03818 12.5392C3.45197 12.5392 3.01435 12.3947 2.72532 12.1057C2.43628 11.8167 2.29177 11.377 2.29177 10.7867V9.51051C2.29177 9.41281 2.25717 9.32732 2.18796 9.25404L1.28422 8.35031C0.864924 7.93508 0.655273 7.52392 0.655273 7.11683C0.655273 6.70974 0.864924 6.29655 1.28422 5.87725L2.18796 4.96741C2.25717 4.8982 2.29177 4.81475 2.29177 4.71705V3.43472C2.29177 2.84037 2.43425 2.40071 2.71921 2.11575C3.00824 1.83079 3.4479 1.68831 4.03818 1.68831H5.3205C5.42228 1.68831 5.50573 1.65371 5.57086 1.5845L6.4807 0.680767C6.90001 0.261466 7.31116 0.051816 7.71418 0.051816C8.12127 0.0477451 8.53446 0.257395 8.95376 0.680767L9.86361 1.5845C9.93281 1.65371 10.0163 1.68831 10.114 1.68831H11.3963C11.9866 1.68831 12.4242 1.83283 12.7092 2.12186C12.9982 2.41089 13.1427 2.84851 13.1427 3.43472V4.71705C13.1427 4.81475 13.1793 4.8982 13.2526 4.96741L14.1564 5.87725C14.5716 6.29655 14.7792 6.70974 14.7792 7.11683C14.7792 7.52392 14.5716 7.93508 14.1564 8.35031L13.2526 9.25404C13.1793 9.32732 13.1427 9.41281 13.1427 9.51051V10.7867C13.1427 11.3811 12.9982 11.8207 12.7092 12.1057C12.4242 12.3947 11.9866 12.5392 11.3963 12.5392H10.114C10.0163 12.5392 9.93281 12.5738 9.86361 12.6431L8.95376 13.5468C8.53853 13.9661 8.12738 14.1757 7.72029 14.1757C7.3132 14.1757 6.90001 13.9661 6.4807 13.5468L5.57086 12.6431C5.50573 12.5738 5.42228 12.5392 5.3205 12.5392H4.03818ZM7.04859 10.17C7.18293 10.17 7.30506 10.1395 7.41497 10.0784C7.52896 10.0133 7.62666 9.92167 7.70808 9.80361L10.5475 5.46812C10.5964 5.39078 10.635 5.31139 10.6635 5.22998C10.6961 5.14856 10.7124 5.06918 10.7124 4.99183C10.7124 4.80457 10.6411 4.64988 10.4987 4.52775C10.3603 4.40562 10.1995 4.34456 10.0163 4.34456C9.77608 4.34456 9.57457 4.47483 9.41174 4.73536L7.03638 8.51518L5.96777 7.20843C5.88636 7.10665 5.80087 7.03338 5.71131 6.9886C5.62582 6.94382 5.52608 6.92143 5.4121 6.92143C5.22891 6.92143 5.07014 6.9886 4.93581 7.12294C4.80147 7.2532 4.7343 7.41197 4.7343 7.59923C4.7343 7.68879 4.75058 7.77428 4.78315 7.8557C4.81571 7.93711 4.8666 8.02057 4.93581 8.10605L6.36468 9.81582C6.46239 9.93388 6.56619 10.0234 6.67611 10.0845C6.78602 10.1415 6.91018 10.17 7.04859 10.17Z" fill="#0A84FF"/>
</svg>
