<svg width="13" height="13" viewBox="0 0 13 13" fill="none" xmlns="http://www.w3.org/2000/svg">
<path fill-rule="evenodd" clip-rule="evenodd" d="M0.850702 5.85009C0.787055 6.26839 0.790799 6.69559 0.860062 7.11746C0.964892 7.76361 1.37114 8.32788 1.96642 8.65718C3.59691 9.55966 7.45875 11.6975 7.45875 11.6975C7.6291 11.7901 7.83698 11.7901 8.00732 11.6975C8.1758 11.6049 8.28066 11.434 8.28066 11.2489V1.65989C8.28066 1.47476 8.1758 1.30209 8.00732 1.20952C7.83698 1.11696 7.6291 1.11695 7.45875 1.2113C7.45875 1.2113 3.59691 3.34736 1.96642 4.24983C1.37114 4.57914 0.964892 5.14518 0.860062 5.79133L0.850702 5.85009ZM9.1792 2.59263C9.1792 2.57305 9.18857 2.55345 9.20728 2.54277C9.22413 2.53031 9.24648 2.52853 9.2652 2.53565C10.9387 3.12662 12.1293 4.65922 12.1293 6.45349C12.1293 8.24954 10.9387 9.78039 9.2652 10.3731C9.24648 10.3803 9.22413 10.3767 9.20728 10.366C9.19044 10.3536 9.1792 10.3357 9.1792 10.3162C9.1792 10.099 9.1792 9.54187 9.1792 9.34785C9.1792 9.30691 9.20351 9.26775 9.24282 9.24995C10.308 8.7284 11.038 7.67103 11.038 6.45349C11.038 5.23595 10.308 4.18039 9.24282 3.65884C9.20351 3.63926 9.1792 3.60189 9.1792 3.55917C9.1792 3.36514 9.1792 2.80801 9.1792 2.59263ZM1.93834 5.95508V5.95154C1.99263 5.61511 2.20612 5.31963 2.515 5.14875L7.18731 2.56235C7.18731 2.56235 7.18731 9.16627 7.18731 10.2076C7.18731 10.2361 7.17243 10.2628 7.14622 10.277C7.12001 10.2913 7.09009 10.2913 7.06388 10.277C5.81341 9.58458 3.63631 8.38127 2.515 7.76004C2.20612 7.58916 1.99263 7.29368 1.93834 6.95725C1.88406 6.62439 1.88406 6.2844 1.93834 5.95154V5.95508ZM9.1792 4.59871C9.1792 4.57379 9.19418 4.55064 9.21664 4.53996C9.24098 4.52928 9.26903 4.53106 9.28962 4.54708C9.88678 4.98853 10.2724 5.67918 10.2724 6.45349C10.2724 7.22958 9.88678 7.91848 9.28962 8.36171C9.26903 8.37595 9.24098 8.3777 9.21664 8.36702C9.19418 8.35634 9.1792 8.33322 9.1792 8.31008C9.1792 7.71199 9.1792 5.1968 9.1792 4.59871ZM0.850702 5.84828L0.858307 5.79488C0.856435 5.81268 0.852574 5.83048 0.850702 5.84828L0.828326 5.98536L0.850702 5.85009V5.84828Z" fill="white" fill-opacity="0.23" style="mix-blend-mode:lighten"/>
<path fill-rule="evenodd" clip-rule="evenodd" d="M0.850702 5.85009C0.787055 6.26839 0.790799 6.69559 0.860062 7.11746C0.964892 7.76361 1.37114 8.32788 1.96642 8.65718C3.59691 9.55966 7.45875 11.6975 7.45875 11.6975C7.6291 11.7901 7.83698 11.7901 8.00732 11.6975C8.1758 11.6049 8.28066 11.434 8.28066 11.2489V1.65989C8.28066 1.47476 8.1758 1.30209 8.00732 1.20952C7.83698 1.11696 7.6291 1.11695 7.45875 1.2113C7.45875 1.2113 3.59691 3.34736 1.96642 4.24983C1.37114 4.57914 0.964892 5.14518 0.860062 5.79133L0.850702 5.85009ZM9.1792 2.59263C9.1792 2.57305 9.18857 2.55345 9.20728 2.54277C9.22413 2.53031 9.24648 2.52853 9.2652 2.53565C10.9387 3.12662 12.1293 4.65922 12.1293 6.45349C12.1293 8.24954 10.9387 9.78039 9.2652 10.3731C9.24648 10.3803 9.22413 10.3767 9.20728 10.366C9.19044 10.3536 9.1792 10.3357 9.1792 10.3162C9.1792 10.099 9.1792 9.54187 9.1792 9.34785C9.1792 9.30691 9.20351 9.26775 9.24282 9.24995C10.308 8.7284 11.038 7.67103 11.038 6.45349C11.038 5.23595 10.308 4.18039 9.24282 3.65884C9.20351 3.63926 9.1792 3.60189 9.1792 3.55917C9.1792 3.36514 9.1792 2.80801 9.1792 2.59263ZM1.93834 5.95508V5.95154C1.99263 5.61511 2.20612 5.31963 2.515 5.14875L7.18731 2.56235C7.18731 2.56235 7.18731 9.16627 7.18731 10.2076C7.18731 10.2361 7.17243 10.2628 7.14622 10.277C7.12001 10.2913 7.09009 10.2913 7.06388 10.277C5.81341 9.58458 3.63631 8.38127 2.515 7.76004C2.20612 7.58916 1.99263 7.29368 1.93834 6.95725C1.88406 6.62439 1.88406 6.2844 1.93834 5.95154V5.95508ZM9.1792 4.59871C9.1792 4.57379 9.19418 4.55064 9.21664 4.53996C9.24098 4.52928 9.26903 4.53106 9.28962 4.54708C9.88678 4.98853 10.2724 5.67918 10.2724 6.45349C10.2724 7.22958 9.88678 7.91848 9.28962 8.36171C9.26903 8.37595 9.24098 8.3777 9.21664 8.36702C9.19418 8.35634 9.1792 8.33322 9.1792 8.31008C9.1792 7.71199 9.1792 5.1968 9.1792 4.59871ZM0.850702 5.84828L0.858307 5.79488C0.856435 5.81268 0.852574 5.83048 0.850702 5.84828L0.828326 5.98536L0.850702 5.85009V5.84828Z" fill="#545454" style="mix-blend-mode:color-dodge"/>
</svg>
